<?xml version="1.0" encoding="UTF-8" standalone="no"?>
<!-- Created with Inkscape (http://www.inkscape.org/) -->

<svg
   version="1.1"
   id="svg1"
   width="3268"
   height="1321.3333"
   viewBox="0 0 3268 1321.3333"
   sodipodi:docname="FirmaEscritaEluMancebo3.svg"
   inkscape:version="1.4.2 (f4327f4, 2025-05-13)"
   xmlns:inkscape="http://www.inkscape.org/namespaces/inkscape"
   xmlns:sodipodi="http://sodipodi.sourceforge.net/DTD/sodipodi-0.dtd"
   xmlns="http://www.w3.org/2000/svg"
   xmlns:svg="http://www.w3.org/2000/svg">
  <defs
     id="defs1" />
  <sodipodi:namedview
     id="namedview1"
     pagecolor="#ffffff"
     bordercolor="#000000"
     borderopacity="0.25"
     inkscape:showpageshadow="2"
     inkscape:pageopacity="0.0"
     inkscape:pagecheckerboard="0"
     inkscape:deskcolor="#d1d1d1"
     showgrid="false"
     inkscape:zoom="0.19492044"
     inkscape:cx="1136.3611"
     inkscape:cy="-7.6954474"
     inkscape:window-width="1366"
     inkscape:window-height="705"
     inkscape:window-x="-8"
     inkscape:window-y="-8"
     inkscape:window-maximized="1"
     inkscape:current-layer="g1" />
  <g
     inkscape:groupmode="layer"
     inkscape:label="Image"
     id="g1">
    <path
       style="fill:#000000"
       d="m 792.14769,1274.7795 c -5.5893,-6.3301 -5.6683,-6.5566 -5.0339,-14.4311 0.7904,-9.8107 5.0314,-18.3133 10.8455,-21.7437 4.3712,-2.5791 7.0432,-8.2067 11.5169,-24.2563 0.9198,-3.3 3.9499,-13.2 6.7335,-22 5.7705,-18.2427 10.5592,-38.274 10.5341,-44.0644 -0.023,-5.2439 3.4818,-20.8947 8.3453,-37.2689 2.1782,-7.3333 4.4582,-16.0333 5.0666,-19.3333 0.6084,-3.3 2.6435,-11.0558 4.5223,-17.235 1.8789,-6.1792 3.4233,-13.3792 3.432,-16 0.019,-5.7177 2.7846,-16.5756 5.6287,-22.0984 2.7922,-5.4221 6.0526,-22.7484 7.0253,-37.33329 0.4401,-6.6 1.9181,-15.9 3.2845,-20.6667 1.3664,-4.76663 3.4435,-11.96663 4.6157,-15.99996 1.1723,-4.03333 2.6742,-10.63333 3.3376,-14.66667 0.6634,-4.03333 1.9296,-9.13333 2.8137,-11.33333 0.8841,-2.2 2.0885,-7.9 2.6765,-12.66667 1.0166,-8.24191 1.8076,-12.11062 7.906,-38.66666 1.4315,-6.23333 3.5103,-18.70757 4.6198,-27.72052 2.0448,-16.61253 4.6635,-31.76133 8.0001,-46.27947 1.0113,-4.4 2.5402,-11.6 3.3977,-16 5.818,-29.85352 21.1158,-80.79235 30.2319,-100.66666 2.5228,-5.5 6.91033,-17.5 9.75003,-26.66667 2.8397,-9.16667 7.8576,-24.76666 11.1509,-34.66666 8.0018,-24.05387 9.7893,-30.40231 12.7644,-45.33333 2.8135,-14.11982 4.9819,-21.01684 7.5474,-24.00611 2.5143,-2.92964 11.11079,-23.49471 12.60129,-30.14559 1.143,-5.10003 10.8639,-26.89919 19.25609,-43.18163 1.7009,-3.3 5.304,-12 8.0068,-19.33333 2.7029,-7.33334 7.7432,-18.73334 11.2007,-25.33334 3.4575,-6.6 8.0063,-16.49999 10.1084,-21.99999 9.1204,-23.86292 19.9971,-49.32998 27.0489,-63.33333 2.9544,-5.86667 5.8228,-12.16667 6.3743,-14 2.4668,-8.20059 19.4649,-41.27227 23.9931,-46.68121 2.756,-3.292 6.0864,-8.48726 7.401,-11.54502 1.3146,-3.05779 4.4504,-7.85779 6.9684,-10.66669 2.5181,-2.8089 5.5033,-6.9071 6.6338,-9.1071 1.1306,-2.2 5.0453,-8.0411 8.6993,-12.9803 3.6541,-4.9391 9.5208,-14.8391 13.0371,-22 5.3899,-10.976 16.3211,-29.5404 20.2279,-34.353 0.5954,-0.7333 2.4263,-3.2401 4.0688,-5.5707 3.9607,-5.6199 10.3866,-7.5894 22.0413,-6.7555 9.363,0.6699 9.4087,0.6924 16.3625,8.0452 3.8354,4.0554 9.4155,11.1318 12.4003,15.7253 9.9281,15.279 12.3065,25.9744 12.8174,57.6383 0.2152,13.3379 0.9897,26.05072 1.7211,28.25072 4.1131,12.37308 5.5988,18.10228 5.5988,21.59078 0,9.16661 7.66,10.98343 11.1538,2.64551 1.9692,-4.69945 18.5728,-20.90296 21.419,-20.90296 0.9947,0 2.1686,-0.93803 2.6085,-2.08451 0.4399,-1.14648 1.4041,-1.71107 2.1426,-1.25464 0.7386,0.45643 1.345,0.34446 1.3478,-0.24882 0.01,-1.17719 9.0629,-5.08617 15.1344,-6.53162 4.5216,-1.07648 17.6041,1.8023 19.7074,4.33658 0.8138,0.98066 2.1886,1.78301 3.0549,1.78301 2.0354,0 10.0983,8.3012 10.0983,10.39681 0,0.88176 0.6,1.60319 1.3333,1.60319 0.7334,0 1.3334,1.10701 1.3334,2.46002 0,5.67132 9.4169,8.69521 15.3333,4.92373 2.9317,-1.86881 14.3465,-13.04797 15.2065,-14.89252 1.7209,-3.69091 6.5877,-8.84393 11.9718,-12.67588 3.3853,-2.4093 10.955,-8.6263 16.8217,-13.8156 11.3874,-10.0726 23.9024,-17.9997 28.4169,-17.9997 1.5175,0 3.0614,-0.4893 3.431,-1.0873 0.3696,-0.5979 5.2339,-0.5984 10.8095,-0.001 16.6054,1.7792 23.8778,6.6731 33.6202,22.6243 8.2657,13.53336 11.0682,22.3507 9.4587,29.75863 -0.6327,2.91203 -0.6712,10.71203 -0.086,17.33333 2.8208,31.89448 -0.6645,83.49178 -6.283,93.01446 -3.439,5.82857 -6.4629,19.04878 -7.5538,33.02426 -0.4293,5.5 -1.8383,12.7 -3.1311,16 -2.3457,5.98776 -5.3315,22.12746 -5.3695,29.02474 -0.011,2.00306 -0.8609,6.04192 -1.8885,8.97526 -1.039,2.96563 -1.326,5.53064 -0.6466,5.77777 0.672,0.24445 1.2218,1.32986 1.2218,2.41203 0,1.08217 -0.5317,1.63896 -1.1816,1.23731 -1.4988,-0.92633 -3.1135,11.70843 -2.6833,20.99643 0.1804,3.89495 -0.1116,7.79304 -0.6489,8.66242 -0.5373,0.86939 -0.6138,2.1683 -0.1699,2.88648 0.4439,0.71818 0.1582,2.51818 -0.6349,4 -1.0385,1.9404 -1.0337,2.69422 0.017,2.69422 0.8025,0 1.0882,0.6 0.6349,1.33333 -0.4532,0.73334 0.2914,1.33334 1.6547,1.33334 1.3633,0 3.145,0.66631 3.9594,1.48069 1.0853,1.08537 2.2978,0.54088 4.5413,-2.03936 1.6834,-1.93603 8.787,-7.04332 15.786,-11.34952 6.9989,-4.30621 14.0933,-9.6885 15.7652,-11.96064 1.672,-2.27215 4.0823,-4.13117 5.3563,-4.13117 1.2739,0 5.4028,-2.7 9.1752,-6 3.7724,-3.3 7.2757,-6 7.7852,-6 0.5095,0 3.1127,-1.69368 5.7849,-3.76374 4.7148,-3.65244 21.4716,-12.23626 23.8868,-12.23626 0.6579,0 4.5374,-2.34046 8.621,-5.20103 8.5327,-5.97719 19.1475,-9.46563 28.8024,-9.46563 3.6894,0 8.1613,-0.55253 9.9375,-1.22783 4.5613,-1.73421 21.9997,0.5623 35.4231,4.66497 12.3997,3.78978 16.9447,7.46812 18.3261,14.83165 0.9879,5.266 -0.4889,8.6575 -7.1674,16.45983 -4.4194,5.16302 -4.6952,5.27137 -13.417,5.27137 -4.8977,0 -10.7455,-0.52785 -12.995,-1.173 -5.226,-1.49882 -25.044,0.64767 -36.766,3.98212 -4.8805,1.38832 -9.9805,2.53184 -11.3333,2.54117 -1.3528,0.009 -10.096,2.67105 -19.4292,5.91495 -17.1958,5.97667 -24.4708,10.03347 -36.1874,20.17937 -3.5697,3.09111 -10.2739,7.8329 -14.8982,10.53732 -4.6244,2.70441 -11.1208,7.59171 -14.4366,10.86065 -7.5819,7.47484 -19.5173,23.28969 -23.5143,31.15742 -1.6764,3.3 -5.3332,9.62093 -8.1261,14.04651 -2.8424,4.5041 -5.4758,10.66749 -5.9817,14 -0.497,3.27442 -2.1278,8.65349 -3.624,11.95349 -3.0135,6.64676 -6.1889,24.83119 -6.2334,35.69645 -0.026,6.38923 0.4669,7.5676 5.4116,12.93193 5.9125,6.41427 12.3157,9.23003 20.2801,8.91795 5.9687,-0.23388 9.4537,-1.83364 14.9462,-6.86085 2.2,-2.01366 6.0332,-4.33946 8.5182,-5.16844 2.485,-0.82898 6.385,-3.28892 8.6667,-5.46654 2.2816,-2.17761 6.6475,-6.10363 9.7019,-8.72449 3.0544,-2.62086 6.71,-6.99138 8.1236,-9.71227 1.4135,-2.72089 5.0253,-9.30905 8.0262,-14.64034 6.9554,-12.35647 9.0079,-19.83009 10.8865,-39.64007 2.3942,-25.24714 4.0439,-32.88688 9.395,-43.50775 3.7741,-7.49085 6.6611,-11.15924 12.1495,-15.43821 7.0553,-5.5006 7.4102,-5.6137 17.7781,-5.66666 11.3188,-0.0578 21.4961,3.37459 23.0787,7.78358 0.4269,1.18931 2.0285,3.96238 3.5592,6.16238 2.4601,3.53579 2.783,5.93417 2.783,20.66666 0,11.30093 -0.5628,17.65335 -1.7482,19.73143 -0.9615,1.68562 -2.2466,9.18562 -2.8557,16.66667 -0.6092,7.48104 -2.0247,16.0019 -3.1457,18.93523 -1.121,2.93334 -2.4353,7.73334 -2.9207,10.66667 -0.4854,2.93333 -2.7748,8.63333 -5.0875,12.66666 -10.0329,17.49689 -11.4362,29.52687 -4.8605,41.66752 5.3084,9.80101 11.9852,15.66581 17.8348,15.66581 2.4514,0 5.2039,-0.9 6.1169,-2 0.9129,-1.1 2.3759,-2 3.251,-2 0.8752,0 2.9889,-2.55 4.6971,-5.66666 1.7083,-3.11667 4.2796,-6.97009 5.7141,-8.56316 2.792,-3.10073 5.9979,-17.21129 6.5225,-28.70875 0.1739,-3.81015 1.7312,-12.05767 3.4606,-18.32782 1.7295,-6.27015 4.0568,-14.70027 5.1719,-18.7336 4.0513,-14.65455 5.8463,-26.23987 5.8479,-37.74214 0,-10.33395 0.5468,-13.05228 4.5483,-22.66666 6.551,-15.74018 10.9409,-22.96136 16.7611,-27.57106 6.4128,-5.07898 14.2488,-8.48286 15.3662,-6.67489 0.4491,0.72678 3.1315,1.32142 5.9607,1.32142 6.4263,0 17.1433,4.47828 18.2629,7.63142 0.4625,1.30272 1.5627,3.26858 2.4448,4.36858 2.0752,2.58771 4.6614,21.85528 4.6592,34.7113 0,10.66896 -3.7034,23.60995 -13.7169,47.95536 -2.5638,6.23334 -5.099,13.43333 -5.6337,16 -0.5347,2.56667 -1.7752,6.23906 -2.7567,8.16087 -4.0275,7.88638 -7.5622,56.89812 -4.5141,62.59345 2.3762,4.44004 8.0856,3.2633 14.0158,-2.88876 2.8988,-3.00728 9.7018,-8.48036 15.1177,-12.1624 10.6642,-7.25012 22.581,-18.96478 30.4967,-29.97936 2.7442,-3.81858 5.9852,-7.29176 7.2021,-7.71818 2.7958,-0.97969 20.3808,-36.21724 22.9588,-46.00562 1.0623,-4.03333 4.1421,-12.73333 6.844,-19.33333 5.5073,-13.45258 11.2644,-28.44245 16.6431,-43.33333 3.8777,-10.73566 16.1245,-33.78263 17.7713,-33.44366 0.5494,0.11306 1.878,-0.67366 2.9526,-1.74827 1.3121,-1.31202 4.2158,-1.84992 8.8397,-1.63751 6.2736,0.2882 7.3403,0.82851 11.9985,6.07769 4.4356,4.99827 5.1128,6.61914 5.1128,12.23743 0,7.6417 -2.384,19.43099 -7.5186,37.18099 -1.1668,4.03333 -2.8694,10.63333 -3.7836,14.66666 -2.2974,10.13543 -15.3508,53.2556 -17.356,57.33333 -0.9015,1.83333 -1.9857,8.47891 -2.4092,14.76795 -0.73,10.83886 -0.5986,11.61957 2.5216,14.98454 1.8104,1.95246 4.6239,3.8602 6.2521,4.23943 3.8886,0.9057 22.6816,-0.10652 30.2937,-1.63165 12.5764,-2.51979 15.2345,-5.86584 12.4667,-15.6936 -4.4856,-15.92778 -5.6738,-39.49764 -2.5482,-50.54948 1.0553,-3.73112 2.657,-10.38385 3.5595,-14.78385 3.9537,-19.27563 13.0318,-39.71564 26.7692,-60.27312 3.5307,-5.28355 6.4194,-10.18556 6.4194,-10.89336 0,-0.7078 3.3329,-5.19104 7.4063,-9.96277 4.0735,-4.77172 8.7235,-11.37828 10.3333,-14.68124 1.6099,-3.30295 9.1272,-12.64979 16.7052,-20.77074 16.9892,-18.20663 26.6389,-24.41041 41.8486,-26.90426 9.8569,-1.61617 10.8463,-1.53155 23.3319,1.99522 15.408,4.35231 19.8826,6.86641 29.8147,16.75189 10.4768,10.42749 11.962,15.71249 12.2965,43.75622 0.2058,17.24734 -0.1207,22.21836 -1.4893,22.67587 -0.9641,0.32227 -2.2928,2.00627 -2.9528,3.74222 -0.7236,1.90317 -2.6745,3.46833 -4.9139,3.9423 -2.0426,0.43232 -8.1856,1.85898 -13.6511,3.17035 -7.2632,1.7427 -10.365,1.9897 -11.5267,0.91786 -0.8742,-0.80654 -1.3096,-1.92849 -0.9675,-2.49322 1.36,-2.24513 0.5087,-16.07238 -1.3549,-22.0091 -1.0873,-3.4636 -2.3469,-7.96867 -2.7992,-10.01128 -1.2556,-5.67129 -5.4305,-6.54262 -17.3814,-3.62756 -13.7454,3.35281 -17.5142,5.95385 -27.0587,18.67472 -1.9257,2.56667 -6.6869,8.91351 -10.5804,14.10409 -3.8935,5.19058 -8.5282,13.13528 -10.2994,17.65488 -1.7713,4.5196 -5.5022,11.97276 -8.2911,16.56258 -2.7889,4.58981 -7.1277,12.54511 -9.6418,17.67845 -4.2706,8.71962 -4.612,10.40352 -5.1921,25.60892 -0.7569,19.84004 -0.1351,23.05774 4.4554,23.05774 4.0827,0 10.715,-3.20691 15.2418,-7.36984 4.0495,-3.724 7.5207,-4.30167 12.2078,-2.03157 4.8881,2.36747 8.1112,8.90305 7.5694,15.34875 -0.3618,4.30385 -1.0372,5.41935 -3.651,6.03033 -4.3938,1.02701 -6.4758,4.5246 -4.2732,7.17855 1.4094,1.6982 10.2994,4.02618 15.4803,4.05371 8.2542,0.0439 15.6688,-2.42104 21.6801,-7.20735 3.9456,-3.1415 9.5312,-6.0455 13.8065,-7.17805 3.949,-1.04613 8.6801,-2.49309 10.5134,-3.21547 4.913,-1.93582 10.6667,-7.76146 10.6667,-10.80004 0,-1.4584 0.5224,-2.97454 1.161,-3.36919 0.6386,-0.39465 1.5311,-3.58006 1.9835,-7.07869 2.7072,-20.93738 3.94,-24.02993 18.5962,-46.64981 4.8544,-7.4921 10.1018,-16.12251 11.661,-19.17869 1.5591,-3.05618 6.5399,-9.52628 11.0684,-14.378 4.5284,-4.85171 9.5511,-10.52159 11.1615,-12.59973 1.6104,-2.07814 3.5015,-3.42399 4.2024,-2.99079 1.0894,0.67327 29.4993,-26.23755 29.4993,-27.94271 0,-1.21124 13.1782,-16.92728 15.558,-18.55416 1.3431,-0.91816 4.236,-2.10647 6.4286,-2.64069 2.1927,-0.53422 4.2927,-1.376 4.6667,-1.87063 0.374,-0.49463 4.6694,-3.93919 9.5453,-7.65459 6.3866,-4.86649 12.1144,-7.81216 20.4857,-10.53531 10.6803,-3.47426 12.2577,-3.66151 19.4996,-2.31475 8.5781,1.59528 26.0583,11.47441 30.1725,17.05237 1.2707,1.72267 4.1908,5.70409 6.4891,8.84758 5.9678,8.16214 8.8145,19.29284 8.6227,33.71545 -0.3699,27.81018 -6.9515,40.01742 -28.8536,53.51603 -3.4066,2.09951 -10.8073,6.86221 -16.4461,10.58377 -5.6387,3.72156 -13.8334,8.68029 -18.2104,11.01939 -4.377,2.3391 -13.8496,8.89418 -21.0502,14.56685 -7.2007,5.67267 -18.335,13.61395 -24.7429,17.64728 -22.0535,13.88112 -24.1011,15.34063 -24.9186,17.76222 -1.0728,3.17754 2.6525,7.28903 9.4203,10.39681 8.3172,3.81928 31.0545,3.44016 49.5484,-0.82616 23.7174,-5.47131 29.9916,-7.41601 39.7327,-12.3151 5.1046,-2.56726 11.5942,-5.48388 14.4214,-6.48136 2.8272,-0.99749 6.861,-3.03887 8.9641,-4.53641 2.1031,-1.49753 6.2761,-3.588 9.2733,-4.64547 9.2277,-3.25572 14.7267,-6.24721 14.7267,-8.01136 0,-0.92747 1.8546,-2.45451 4.1213,-3.39341 5.643,-2.33739 17.9186,-10.39972 25.4532,-16.71697 3.4326,-2.87803 9.113,-7.33279 12.6232,-9.89945 3.5102,-2.56667 7.3194,-5.5844 8.465,-6.70606 1.1455,-1.12167 4.9905,-4.12167 8.5444,-6.66667 3.5538,-2.545 8.6966,-7.92727 11.4284,-11.9606 4.3355,-6.40119 5.0855,-8.68918 5.8998,-18 0.5131,-5.86667 1.8287,-14.56667 2.9236,-19.33333 1.0949,-4.76667 2.5792,-15.56667 3.2984,-24 0.7193,-8.43334 1.8691,-21.03334 2.5553,-28 0.6861,-6.96667 0.9078,-15.41425 0.4926,-18.7724 -0.4358,-3.52412 0.1413,-10.28923 1.3648,-16 1.166,-5.44185 2.7566,-17.39426 3.5348,-26.56093 1.445,-17.02159 1.9212,-19.9904 3.9572,-24.66667 1.4244,-3.27168 4.0134,-29.08668 4.0084,-39.96783 0,-4.38232 1.4503,-16.68232 3.2275,-27.33334 1.7771,-10.65102 3.9319,-25.36549 4.7883,-32.69882 2.5512,-21.84429 3.6084,-28.88099 5.7092,-37.99999 1.7898,-7.7691 4.1662,-37.229 3.9795,-49.3333 -0.04,-2.5667 -0.2235,-11.1717 -0.4088,-19.1223 -0.3356,-14.3978 -0.3213,-14.4712 3.5701,-18.3626 5.492,-5.492 18.4481,-7.6472 26.7992,-4.4579 7.5587,2.8867 9.6315,6.3632 10.5866,17.756 0.6415,7.6521 0.3519,10.079 -1.5491,12.9803 -2.9082,4.4384 -5.1804,29.4992 -3.5195,38.8178 0.6262,3.5137 0.9113,17.4887 0.6335,31.0553 -0.4935,24.10086 -2.5595,40.81263 -7.7473,62.66669 -2.5066,10.55958 -5.691,42.9704 -6.8775,69.99999 -0.5187,11.81574 -1.625,21.83989 -2.7034,24.49617 -1.0039,2.47289 -1.8253,6.48003 -1.8253,8.90476 0,2.42473 -0.7943,5.20286 -1.7651,6.17364 -2.1594,2.15938 -2.8838,11.12102 -2.7139,33.57217 0.1402,18.52461 0.7883,20.22909 7.1456,18.79402 1.8334,-0.41385 6.3934,-4.05934 10.1334,-8.1011 7.2015,-7.78257 9.7886,-9.48693 18.8666,-12.42962 3.1167,-1.01028 5.6667,-2.24452 5.6667,-2.74277 0,-1.28832 6.6613,-4.16131 7.889,-3.40252 0.5624,0.34758 4.8675,-2.0102 9.5668,-5.23952 4.6993,-3.22932 11.2442,-7.18701 14.5442,-8.79487 3.3,-1.60787 7.7429,-3.83125 9.8731,-4.94086 6.5417,-3.40755 23.4863,-4.89484 48.1269,-4.22427 6.9873,0.19015 13.7228,-2.04728 19.3333,-6.42225 4.5507,-3.54851 11.2251,-6.87478 14.929,-7.44004 1.6891,-0.25777 2.8802,-0.95592 2.647,-1.55144 -0.2332,-0.59553 1.5668,-2.00745 4,-3.1376 3.1551,-1.46543 9.2046,-2.10736 21.0907,-2.23797 31.2639,-0.34354 30.1516,-0.19565 34.6667,-4.60926 2.2505,-2.2 5.0041,-4 6.1191,-4 1.1149,0 4.6768,-1.20703 7.9152,-2.68229 3.2384,-1.47526 13.8486,-4.80169 23.5783,-7.39207 37.7686,-10.0553 74.0569,-6.78322 98.8229,8.91074 4.5271,2.8688 10.0311,6.07611 12.2311,7.12736 8.9488,4.27604 24.7589,23.29925 27.3616,32.92228 2.8508,10.54015 2.1015,33.98268 -1.4633,45.78064 -1.551,5.13333 -3.1377,10.83333 -3.5259,12.66667 -0.3883,1.83333 -2.0664,4.83333 -3.7292,6.66666 -5.0718,5.59199 -9.5415,16.17816 -10.9776,26 -1.3625,9.31756 -7.523,24.66667 -9.9003,24.66667 -0.6908,0 -0.9506,0.49419 -0.5773,1.09819 1.3027,2.10768 -4.462,17.54945 -9.9018,26.52412 -6.4704,10.67494 -7.2057,11.99341 -9.1341,16.37768 -1.5007,3.41204 -2.2544,4.68106 -8.3027,13.97801 -1.9162,2.94543 -3.89,6.65267 -4.3861,8.23832 -0.4961,1.58564 -2.6783,5.11814 -4.8493,7.85 -2.171,2.73186 -3.9473,5.74945 -3.9473,6.70575 0,1.80912 -11.4955,11.06607 -20.5721,16.5661 -2.8813,1.74595 -8.6743,6.03352 -12.8733,9.52794 -4.7902,3.98651 -10.7621,7.40712 -16.0298,9.18166 -4.6174,1.5555 -10.0003,3.65816 -11.962,4.67259 -3.4793,1.79922 -8.0156,1.73659 -22.5628,-0.31148 -13.4787,-1.89764 -14.997,-2.46375 -24.5855,-9.16657 -7.7301,-5.40374 -27.3982,-25.13257 -27.4099,-27.49463 0,-0.50544 -3.3046,-5.5185 -7.3379,-11.14013 -4.0334,-5.62162 -7.3334,-11.00808 -7.3334,-11.9699 0,-0.96182 -0.6304,-1.9589 -1.4008,-2.21573 -1.6562,-0.55206 -8.109,-17.61839 -8.4778,-22.42193 -0.3285,-4.27815 -3.0482,-10.66666 -4.541,-10.66666 -0.6338,0 -1.8724,1.35 -2.7525,3 -10.4774,19.64338 -27.2513,40.04914 -40.1612,48.85681 -2.5667,1.75109 -8.2667,7.43172 -12.6667,12.62362 -4.4,5.1919 -10.1,11.49547 -12.6666,14.00793 -2.5667,2.51246 -5.6378,6.02474 -6.8246,7.80506 -1.1869,1.78031 -5.6028,5.81353 -9.8131,8.9627 l -7.655,5.72576 -20.216,1.62967 c -32.473,2.61774 -55.9887,0.54917 -71.4913,-6.28877 -5.3364,-2.35378 -20.891,-17.83311 -23.0329,-22.92148 -0.8203,-1.94852 -1.4983,-13.73533 -1.5875,-27.59556 -0.1671,-25.98471 -0.7719,-28.47241 -6.9224,-28.47241 -2.1904,0 -6.0952,2.87075 -12.2421,9 -9.3962,9.36941 -35.2911,31.29421 -37.9949,32.16971 -0.8545,0.27667 -2.9243,1.7507 -4.5995,3.27561 -3.1309,2.84979 -5.95,4.48839 -23.0349,13.38868 -5.4555,2.84204 -11.7074,6.44204 -13.8931,8 -7.5723,5.39752 -45.3385,24.30069 -54.0261,27.04172 -3.3,1.04119 -12.3,3.05004 -20,4.46412 -7.7,1.41408 -18.5961,3.5027 -24.2137,4.64139 -14.8825,3.01672 -31.2233,1.24764 -47.4242,-5.13421 -6.7676,-2.66586 -14.001,-4.84703 -16.0743,-4.84703 -2.0733,0 -5.8363,-1.56507 -8.3621,-3.47795 -8.3533,-6.32621 -14.5926,-8.46144 -24.8169,-8.49276 -9.4208,-0.0289 -9.6407,0.0505 -15.3333,5.5352 -10.7373,10.34505 -21.8728,16.42478 -36.1386,19.73079 -11.7889,2.73202 -15.4711,2.96251 -38.6666,2.42039 -23.6759,-0.55334 -26.4528,-0.88089 -36.3036,-4.28213 -11.8924,-4.10617 -14.5733,-3.7887 -25.3333,2.99991 -6.0922,3.84357 -14.8356,7.37994 -27.3334,11.05523 -7.9777,2.34605 -13.4108,2.68211 -38.3333,2.37109 -8.804,-0.10987 -21.9555,-4.40521 -30.3309,-9.90619 -9.7217,-6.38523 -9.6457,-6.35805 -16.6677,-5.95791 -5.7009,0.32486 -9.3347,2.13431 -9.3347,4.64816 0,3.67089 -29.3166,33.37178 -41.1365,41.67581 -3.9251,2.75753 -9.0251,6.5757 -11.3334,8.48483 -7.0307,5.81501 -9.4672,6.51214 -25.8355,7.39226 -14.3769,0.77304 -16.3715,0.59021 -22.334,-2.04728 -3.6009,-1.59287 -8.4892,-4.37738 -10.8628,-6.18781 -7.2752,-5.54908 -10.4588,-6.19066 -22.3512,-4.50435 -10.252,1.45369 -32.508,1.7288 -42.0602,0.51991 -2.4195,-0.30622 -9.8473,-3.72636 -16.5061,-7.60031 -11.0812,-6.44679 -12.9603,-8.17322 -22.1789,-20.37689 -13.3199,-17.63309 -13.6632,-17.67708 -33.0649,-4.23756 -18.6064,12.88867 -26.9201,15.60137 -47.477,15.49141 -15.261,-0.0816 -22.1866,-0.91968 -33.1563,-4.01221 -6.0368,-1.70188 -6.4411,-1.64031 -9.7934,1.4916 -4.4232,4.1325 -6.9371,9.19656 -6.2003,12.48986 0.3145,1.40603 -0.3585,5.60603 -1.4957,9.33333 -5.8609,19.21029 -11.5472,47.91896 -11.5472,58.29932 0,6.67674 -6.738,24.24163 -11.5715,30.16493 -5.7273,7.01872 -10.614,9.64598 -17.9413,9.64598 -6.5842,0 -16.0807,-4.21507 -19.6126,-8.70523 -5.06,-6.43268 -4.7881,-33.96945 0.546,-55.29476 1.0088,-4.03334 2.5003,-10.03334 3.3143,-13.33334 0.8141,-3.3 2.6599,-10.5 4.1018,-16 1.4419,-5.5 2.872,-12.1 3.1781,-14.66666 0.7026,-5.892 6.6853,-37.0656 9.9795,-52 1.375,-6.23333 2.9011,-13.94039 3.3915,-17.1268 0.8762,-5.69413 7.0278,-24.57266 9.0936,-27.90747 0.5795,-0.93552 1.3917,-5.13552 1.8047,-9.33334 0.4131,-4.19781 1.4981,-9.13238 2.4111,-10.96572 0.9131,-1.83333 2.3109,-6.63333 3.1062,-10.66666 3.9877,-20.22333 5.532,-29.84968 5.532,-34.48501 0,-5.698 3.5392,-16.88912 8.405,-26.57657 1.7723,-3.52867 3.7214,-9.98336 4.3313,-14.34376 0.6098,-4.36039 1.2868,-8.82799 1.5043,-9.92799 0.2175,-1.1 0.9529,-6.8 1.6343,-12.66667 1.3373,-11.51477 3.3848,-19.54617 6.0962,-23.91305 0.9404,-1.51449 2.0536,-5.48382 2.474,-8.82074 0.4203,-3.33692 2.2862,-9.33692 4.1465,-13.33333 2.7631,-5.93593 3.3924,-9.34108 3.4375,-18.59954 0.071,-14.52017 6.5154,-56.74095 11.2956,-74 3.5536,-12.83007 6.5377,-35.99754 4.9695,-38.58058 -0.4165,-0.68598 -0.8516,-4.88598 -0.9669,-9.33333 -0.4949,-19.08577 -4.8968,-45.73062 -8.4565,-51.18718 -0.6342,-0.97227 -3.5345,-2.08718 -6.4451,-2.47756 -5.2047,-0.6981 -5.5125,-0.4932 -18.6787,12.43443 -7.3628,7.22933 -16.4656,17.76372 -20.2285,23.40978 -3.7629,5.64605 -9.8657,14.31098 -13.5617,19.2554 -3.696,4.94442 -8.5348,12.16163 -10.7527,16.03824 -6.0688,10.60707 -11.882,29.96703 -12.7187,42.35701 -0.3993,5.91275 -1.2458,12.55046 -1.8812,14.75046 -0.6355,2.2 -1.2765,8.2 -1.4245,13.33333 -0.148,5.13333 -0.7547,10.83333 -1.3483,12.66667 -0.5935,1.83333 -1.3109,6.33333 -1.5942,10 -0.2834,3.66666 -1.5661,9.06666 -2.8507,12 -1.2845,2.93333 -2.8374,9.83333 -3.451,15.33333 -0.6135,5.5 -2.1068,15.1 -3.3184,21.33333 -1.2116,6.23333 -2.734,16.13333 -3.383,22 -0.649,5.86667 -1.8081,14.78371 -2.5756,19.81566 -0.7676,5.03195 -1.7068,20.63195 -2.0872,34.66667 -0.7564,27.91013 -1.9046,36.75271 -6.6026,50.851 -1.7105,5.13333 -3.4241,13.23333 -3.8077,17.99999 -0.3837,4.76667 -1.3378,16.16667 -2.1203,25.33334 -0.7824,9.16666 -1.6258,19.66666 -1.8743,23.33333 -0.2485,3.66666 -0.7889,7.56666 -1.201,8.66666 -0.412,1.1 -1.1247,3.8 -1.5836,6 -0.459,2.2 -1.4313,6.4 -2.1607,9.33334 -0.7294,2.93333 -1.8531,17.33333 -2.4971,32 -0.979,22.29427 -1.6809,28.19699 -4.2809,35.99999 -2.7899,8.37327 -3.6584,9.60416 -8.4431,11.96612 -3.3024,1.63021 -8.9681,2.82578 -14.8784,3.13959 l -9.545,0.50681 -5.9357,-5.47138 c -5.0717,-4.67485 -6.0827,-6.49067 -6.9446,-12.47292 -0.5548,-3.85085 -0.9727,-8.20155 -0.9285,-9.66822 0.044,-1.46666 0.28,-17.06666 0.5241,-34.66666 0.245,-17.67196 1.0253,-32.8955 1.7426,-34 0.7143,-1.1 1.3599,-10.7 1.4347,-21.33333 0.1286,-18.30042 0.9882,-28.1708 2.6938,-30.93041 0.4171,-0.67493 0.7347,-4.28651 0.7057,-8.02573 -0.029,-3.73922 0.8137,-8.47397 1.8726,-10.52167 1.059,-2.0477 1.9253,-5.17962 1.9253,-6.95981 0,-1.78019 0.8264,-5.25999 1.8365,-7.73288 1.01,-2.47289 2.2609,-12.2315 2.7797,-21.68579 0.5188,-9.4543 1.194,-18.4543 1.5004,-20 0.3064,-1.5457 1.5192,-10.61037 2.6952,-20.1437 1.176,-9.53334 2.9744,-19.9043 3.9965,-23.0466 1.0221,-3.14229 1.8584,-7.84915 1.8584,-10.45968 0,-6.13357 5.0027,-22.79361 8.2337,-27.4197 1.8416,-2.63689 2.4512,-5.65194 2.2912,-11.33334 -0.1469,-5.21493 0.9162,-11.23148 3.2579,-18.43896 1.9118,-5.88405 4.0445,-14.71339 4.7395,-19.62076 0.695,-4.90736 1.7334,-9.68259 2.3075,-10.61161 0.5742,-0.92902 1.1342,-2.59968 1.2444,-3.71257 0.1103,-1.11289 1.0273,-4.72344 2.0379,-8.02344 1.3159,-4.29693 1.8311,-13.94766 1.815,-34 -0.02,-25.20998 -0.3335,-29.127 -3.1443,-39.31032 -1.7171,-6.22067 -4.0956,-12.05159 -5.2857,-12.95759 -3.5328,-2.68951 -9.8065,-1.88649 -15.4971,1.9836 -5.1238,3.48462 -6.5983,5.7949 -18.9138,29.63469 -1.3307,2.57604 -3.701,6.47604 -5.2672,8.66667 -1.5662,2.19062 -4.0906,8.0132 -5.6097,12.93906 -3.2228,10.45005 -6.5744,17.38763 -7.9804,16.51871 -0.5449,-0.3368 -1.0605,0.39358 -1.1457,1.62307 -0.085,1.22949 -1.7974,6.43544 -3.8049,11.56878 -5.013,12.81859 -9.5404,29.37605 -12.5381,45.85332 -1.3861,7.61933 -3.0272,14.21933 -3.6468,14.66667 -0.6196,0.44733 -1.2105,2.54171 -1.3131,4.65417 -0.1026,2.11247 -0.6951,4.21247 -1.3168,4.66667 -0.6216,0.45421 -1.2758,3.02539 -1.4539,5.71374 -0.178,2.68836 -1.0068,6.58836 -1.8416,8.66667 -0.8348,2.07831 -1.665,4.97875 -1.8447,6.44542 -0.1798,1.46666 -1.0059,8.66666 -1.8359,16 -0.83,7.33333 -2.684,18.43333 -4.12,24.66666 -1.436,6.23333 -3.2736,14.78333 -4.0837,19 -0.81,4.21667 -1.9539,7.66667 -2.5419,7.66667 -0.5881,0 -1.3963,2.85 -1.7962,6.33333 -0.9838,8.57093 -1.4625,10.55682 -6.9912,29 -7.5424,25.16111 -9.6058,32.40387 -13.2949,46.66666 -6.1675,23.8454 -9.9617,37.23423 -12.0213,42.42122 -1.1111,2.79834 -1.6879,5.62569 -1.2816,6.28301 0.6042,0.97768 -4.7945,18.5378 -12.491,40.6291 -4.4669,12.82118 -8.1989,25.78915 -8.1989,28.48916 0,1.7093 -0.7975,4.9985 -1.7723,7.30933 -3.0019,7.11662 -6.3752,18.15707 -7.5361,24.66431 -0.6087,3.41212 -2.311,9.80386 -3.7828,14.20386 -1.4718,4.4 -3.2176,13.72166 -3.8797,20.7148 -1.6396,17.3198 -4.1413,22.11176 -14.3625,27.51156 -4.4,2.32449 -9.6002,4.27449 -11.5561,4.33333 -4.9515,0.14895 -14.4855,-4.17366 -20.1233,-9.12372 l -4.7382,-4.16025 0.445,-14.30453 c 0.2448,-7.86749 1.007,-15.80452 1.6938,-17.63786 0.6868,-1.83333 1.6655,-6.33333 2.175,-10 0.5095,-3.66666 2.3905,-11.16666 4.1801,-16.66666 5.9517,-18.29162 15.2571,-50.96646 15.2571,-53.57354 0,-3.41267 9.6326,-36.97257 15.8133,-55.09312 1.5008,-4.4 4.6076,-15.2 6.9042,-24 2.2965,-8.8 6.8006,-24.4 10.0091,-34.66666 5.4102,-17.31206 8.5609,-30.59666 10.4771,-44.17605 0.4276,-3.03016 2.5451,-10.83016 4.7056,-17.33333 3.7462,-11.2765 6.9552,-23.76711 8.6744,-33.76393 0.4358,-2.53366 2.5335,-9.13366 4.6618,-14.66667 3.893,-10.1212 5.8998,-19.27979 7.4629,-34.06002 1.2171,-11.50894 6.0245,-33.12982 14.6132,-65.7222 2.5685,-9.74722 5.0596,-22.04722 5.5356,-27.33333 0.4761,-5.28612 2.3424,-14.11113 4.1474,-19.61113 4.1352,-12.60018 6.3088,-38.08322 4.3217,-50.66666 -0.7527,-4.76667 -1.5576,-22.16666 -1.7887,-38.66666 -0.4437,-31.68876 -0.8028,-33.65526 -7.0424,-38.56326 -6.5877,-5.1819 -11.7448,-2.8542 -14.5404,6.5633 -1.6117,5.429 -10.4869,19.88897 -12.2429,19.94667 -1.7606,0.0579 -11.8589,17.31591 -13.2822,22.69949 -0.4817,1.82208 -3.3458,6.92208 -6.3645,11.33333 -3.0188,4.41126 -6.8551,11.62046 -8.5251,16.02046 -1.6701,4.4 -6.8775,15.8 -11.5721,25.33334 -4.6947,9.53333 -9.224,20.03333 -10.0653,23.33333 -0.8414,3.3 -1.9888,7.2 -2.5499,8.66666 -0.5611,1.46667 -1.997,6.02563 -3.1909,10.13103 -1.1938,4.10539 -3.6021,9.13024 -5.3517,11.16632 -1.7495,2.03608 -8.3509,13.41813 -14.6697,25.29344 -10.2455,19.25487 -14.258,28.61208 -25.333,59.07598 -1.6662,4.58339 -3.4296,7.93339 -3.9185,7.44444 -0.489,-0.48894 -0.8913,0.26101 -0.894,1.66656 0,1.40556 -1.3275,4.65556 -2.944,7.22223 -3.8781,6.15798 -5.0175,8.17284 -11.334,20.04263 -4.0818,7.6706 -5.5708,12.23707 -6.3038,19.33333 -0.8656,8.37923 -4.3826,19.2683 -12.9057,39.95736 -5.0417,12.23842 -13.41639,37.23431 -15.34039,45.78632 -1.0459,4.64914 -3.1546,10.90899 -4.686,13.91078 -4.8711,9.548 -9.08049,22.01218 -13.30679,39.40143 -2.2593,9.29581 -5.4746,19.30147 -7.1451,22.2348 -5.3799,9.4465 -10.2517,24.94918 -10.8147,34.41386 -0.2971,4.99429 -1.1362,10.19411 -1.8646,11.55516 -0.7284,1.36105 -2.5142,9.27481 -3.9685,17.58614 -1.4542,8.31132 -3.7854,19.6115 -5.1803,25.1115 -1.395,5.5 -3.5449,14.2 -4.77753,19.33333 -1.2327,5.13334 -3.0979,12.63334 -4.1449,16.66667 -1.0471,4.03333 -1.9131,10.66333 -1.9246,14.73333 -0.011,4.07 -0.6292,8.00842 -1.3728,8.75205 -0.7437,0.74362 -2.1951,6.11362 -3.2253,11.93333 -1.0303,5.81971 -2.5076,12.23275 -3.2829,14.2512 -0.7753,2.01844 -2.6231,12.51844 -4.1062,23.33333 -1.4831,10.81488 -3.5774,22.66342 -4.654,26.33009 -1.0766,3.66666 -2.8941,12.92368 -4.0389,20.57115 -1.1448,7.64747 -3.5073,19.64744 -5.25,26.66664 -1.7426,7.0192 -3.5624,16.96222 -4.0439,22.09552 -1.1317,12.0653 -3.2066,24.8019 -5.5303,33.9468 -1.0174,4.0041 -1.8498,9.5882 -1.8498,12.4092 0,5.0298 -8.4263,41.1134 -10.3022,44.1167 -0.5247,0.84 -1.1095,2.524 -1.2995,3.7422 -1.0851,6.9569 -7.3461,28.4423 -9.5434,32.7494 -4.7269,9.2656 -5.6111,16.1042 -6.201,47.961 l -0.5857,31.6253 -5.2655,10.7247 c -4.3752,8.9113 -8.0446,13.5825 -21.7008,27.6259 -17.4795,17.975 -22.5595,21.2821 -35.4048,23.0488 l -6.6318,0.9121 z M 2407.1511,670.19116 c 8.4852,-3.4204 11.4928,-5.45663 16.0275,-10.85117 3.0703,-3.65236 10.5323,-12.28057 16.5823,-19.17379 6.05,-6.89323 11,-13.35865 11,-14.3676 0,-1.00895 3.6,-9.31571 8,-18.45945 4.4,-9.14374 8.0039,-17.45727 8.0088,-18.4745 0,-1.01723 1.2008,-3.64951 2.6578,-5.84951 1.457,-2.2 2.6531,-4.94656 2.6579,-6.10346 0,-1.1569 1.6106,-5.9569 3.5684,-10.66666 3.2799,-7.89004 3.5666,-10.08304 3.6478,-27.89654 0.1002,-22.01475 -1.5223,-27.5103 -9.7379,-32.98241 -8.4883,-5.65371 -17.2329,-3.22719 -29.5863,8.20986 -4.3005,3.98155 -8.9893,7.61057 -10.4194,8.06448 -4.8126,1.52746 -37.9675,45.55745 -41.6975,55.37473 -0.6966,1.83333 -3.4632,7.23333 -6.1479,12 -5.4401,9.65849 -10.2697,20.74687 -12.3648,28.38823 -0.7623,2.7802 -3.1654,7.5802 -5.3403,10.66667 -3.6123,5.1263 -10.58,22.83733 -10.58,26.893 0,3.94388 6.5421,9.39633 17.8809,14.90275 10.6942,5.19337 12.8997,5.80601 18.7583,5.21061 3.6515,-0.3711 11.3395,-2.56946 17.0844,-4.88524 z m 203.2137,-21.45256 c 2.0512,-0.88543 7.0157,-3.6652 11.0324,-6.17726 4.0166,-2.51207 9.7166,-5.6219 12.6667,-6.91073 2.95,-1.28884 6.852,-3.75907 8.6712,-5.48941 1.8192,-1.73033 3.8428,-2.97153 4.4969,-2.75821 0.6542,0.21333 0.8634,-0.46147 0.4651,-1.49955 -0.4223,-1.10034 1.5049,-4.04214 4.6213,-7.05452 11.6951,-11.30449 22.5184,-25.6369 25.1615,-33.31926 1.4498,-4.21406 3.4604,-8.60377 4.468,-9.7549 2.6176,-2.99067 12.4907,-24.00722 13.5106,-28.75962 0.8817,-4.10829 4.6758,-12.81171 6.1031,-14 0.4405,-0.36666 2.4389,-7.12242 4.441,-15.0128 6.6915,-26.37167 5.0974,-50.10457 -4.086,-60.83335 -2.5833,-3.01795 -5.5712,-5.48718 -6.6399,-5.48718 -1.0686,0 -3.5453,-1.05 -5.5037,-2.33333 -3.0503,-1.99883 -6.7231,-2.31607 -25.6198,-2.21292 -25.8479,0.1411 -38.58,1.73862 -46.3432,5.81476 -3.0897,1.62226 -6.1982,2.59071 -6.9079,2.15211 -0.7097,-0.4386 -1.6672,-0.18766 -2.1278,0.55763 -1.2652,2.04722 -4.8354,1.62781 -7.6238,-0.89561 -3.1319,-2.8343 -17.0314,-2.73784 -23.9823,0.16644 -5.5368,2.31343 -10.5701,7.84855 -12.9493,14.24045 -0.9234,2.48076 -2.555,6.53494 -3.6258,9.00928 -1.0708,2.47434 -2.5077,8.47434 -3.1932,13.33333 -0.6855,4.85899 -1.854,11.75104 -2.5967,15.31566 -0.7427,3.56463 -1.0585,6.95335 -0.7018,7.5305 0.3567,0.57714 -0.1977,3.96063 -1.2319,7.51886 -3.5608,12.25101 -5.0991,24.34237 -4.092,32.16372 0.541,4.20151 1.1465,13.93912 1.3456,21.63912 0.199,7.7 1.0587,17 1.9103,20.66666 0.8516,3.66667 2.0117,9.17128 2.5779,12.23246 0.5662,3.06119 2.7815,7.60493 4.9229,10.0972 2.1413,2.49227 5.7532,7.18766 8.0265,10.43421 3.1315,4.47238 6.8473,7.32509 15.3333,11.77207 6.1601,3.2281 13.9002,6.62445 17.2002,7.54744 3.3,0.923 6.1218,1.73182 6.2706,1.7974 0.1488,0.0656 1.9488,-0.60522 4,-1.49065 z M 1544.6706,619.34847 c 0.8864,-4.24001 2.0002,-12.3618 2.9561,-21.55561 0.6349,-6.10693 0.3774,-8.21522 -1.1399,-9.33334 -1.078,-0.79441 -2.31,-2.34438 -2.7377,-3.44438 -0.6218,-1.59895 -0.7988,-1.53211 -0.883,0.33333 -0.058,1.28334 -0.9491,2.33334 -1.9804,2.33334 -1.2079,0 -1.6313,0.93275 -1.1897,2.6213 0.377,1.44172 -0.5791,6.78486 -2.1248,11.87365 -2.7901,9.18568 -3.6263,17.57794 -1.9214,19.28282 0.4888,0.48889 2.5774,0.88889 4.6412,0.88889 2.8166,0 3.9088,-0.74812 4.3796,-3 z m 535.9879,-14.0035 c 3.6104,-1.16668 9.6104,-4.70238 13.3334,-7.85711 7.59,-6.43158 37.4957,-27.05867 39.8885,-27.51257 0.8509,-0.16142 1.8471,-0.6661 2.2138,-1.12151 0.3667,-0.45541 4.2667,-2.65448 8.6667,-4.88681 7.9892,-4.05331 22.2436,-13.6185 20.2948,-13.6185 -0.5665,0 -0.056,-1.88309 1.134,-4.18466 6.3506,-12.28078 -5.9587,-23.03447 -22.8025,-19.92072 -9.2098,1.70252 -10.601,2.47206 -19.4118,10.73768 -3.968,3.72245 -11.1275,8.85529 -15.9099,11.40631 -4.7825,2.55103 -11.7793,7.33594 -15.5485,10.63314 -3.7692,3.29721 -7.5417,5.99492 -8.3833,5.99492 -0.8416,0 -1.2269,0.49071 -0.8563,1.09046 0.3707,0.59975 -0.4939,1.93221 -1.9213,2.96101 -1.4274,1.02881 -2.5952,2.44252 -2.5952,3.14158 0,0.69906 -3.6211,5.68291 -8.0468,11.07522 -4.4257,5.3923 -8.6257,11.32694 -9.3333,13.18809 -1.5287,4.02079 -1.6879,10.36455 -0.295,11.75742 1.282,1.28208 11.2053,-0.18006 19.5727,-2.88395 z m 445.5233,-72.47151 c 0.5013,-0.81126 1.1465,-9.56889 1.4336,-19.46141 0.2871,-9.89252 1.1123,-19.08932 1.8338,-20.43733 0.7214,-1.34801 1.3117,-4.78349 1.3117,-7.6344 0,-4.94958 2.3248,-13.70521 5.928,-22.32517 0.9196,-2.2 2.4608,-6.1 3.4249,-8.66667 0.9641,-2.56667 2.5541,-5.61391 3.5333,-6.77165 0.9793,-1.15775 1.7804,-4.29632 1.7804,-6.9746 0,-5.71113 -2.0553,-6.61622 -15.4531,-6.8049 -7.4416,-0.1048 -8.9024,0.36584 -15.7454,5.07257 -8.3929,5.77279 -16.1551,10.14525 -18.0103,10.14525 -0.6702,0 -3.6287,1.57801 -6.5745,3.50669 -4.6752,3.06089 -5.1569,3.82556 -3.7897,6.0149 0.8616,1.37951 2.56,2.82356 3.7744,3.20899 1.2144,0.38543 3.2424,2.92872 4.5068,5.65176 1.2643,2.72305 3.0719,5.85099 4.0168,6.95099 0.9449,1.1 2.7781,4.7 4.0739,8 1.2957,3.3 3.6833,8.1 5.3057,10.66666 1.6225,2.56667 3.6651,7.06667 4.5392,10 0.8741,2.93334 2.746,7.89618 4.1597,11.02855 1.4137,3.13237 3.6113,8.97411 4.8835,12.98165 2.3289,7.33652 3.3903,8.56146 5.0673,5.84812 z m -2346.82678,346.17 c -13.88357,-4.38661 -30.04737,-17.11954 -35.58054,-28.02834 -1.48785,-2.93333 -3.10618,-5.63333 -3.59629,-6 -0.49011,-0.36666 -2.35951,-3.96666 -4.15422,-8 -3.08172,-6.92567 -3.2564,-8.64438 -3.14229,-30.91787 0.0913,-17.82176 0.63085,-24.98924 2.20814,-29.33333 3.24259,-8.93063 5.87279,-19.12052 9.05534,-35.08212 1.60839,-8.06667 3.41534,-16.46667 4.01543,-18.66667 2.84171,-10.41805 14.72141,-42.39459 19.06927,-51.32869 2.67538,-5.49745 4.86433,-10.74745 4.86433,-11.66667 0,-0.91921 0.5718,-1.6713 1.27066,-1.6713 1.80312,0 3.97517,-8.68385 3.07681,-12.30106 -1.04533,-4.209 -5.30206,-10.04812 -8.77353,-12.03499 -1.89971,-1.08728 -12.14901,-1.95439 -29.57394,-2.50201 -49.348983,-1.55092 -65.706779,-5.38763 -68.027959,-15.95593 -0.70877,-3.22698 -0.23754,-4.8055 2.23139,-7.47466 4.63404,-5.00986 11.616226,-9.03662 19.129896,-11.03256 3.66667,-0.97402 7.61391,-2.5797 8.771663,-3.5682 1.15774,-0.98849 3.35774,-1.79725 4.88889,-1.79725 1.53114,0 2.99598,-0.63625 3.25519,-1.41389 0.25922,-0.77764 7.95922,-4.00605 17.11111,-7.17424 9.1519,-3.1682 18.36868,-6.44708 20.48172,-7.28641 2.11305,-0.83932 6.57635,-2.13885 9.91846,-2.88783 3.3421,-0.74898 9.90074,-3.13183 14.57475,-5.29522 4.67402,-2.16339 10.11072,-4.33144 12.08155,-4.81789 1.97084,-0.48646 5.68334,-2.19525 8.25001,-3.79732 2.56666,-1.60207 7.96666,-3.98455 12,-5.2944 7.93138,-2.57576 14.16995,-5.65497 17.1885,-8.48382 1.04721,-0.9814 4.252,-3.26658 7.12176,-5.07817 7.15896,-4.51926 15.96899,-13.96977 23.41719,-25.11961 3.43568,-5.14316 8.40836,-12.0512 11.0504,-15.3512 5.89955,-7.36875 13.39081,-19.09966 19.2512,-30.14635 4.41974,-8.3311 10.77405,-30.14217 9.41982,-32.33336 -1.07597,-1.74096 2.96272,-4.72899 11.71225,-8.66531 9.67152,-4.35112 13.70452,-4.4166 18.83888,-0.30588 3.91521,3.13464 3.99363,3.43457 3.69952,14.1505 -0.16526,6.02139 -0.84183,11.62728 -1.50348,12.45753 -0.66165,0.83025 -1.63034,2.90197 -2.15264,4.60384 -0.52229,1.70186 -4.20715,6.50186 -8.18857,10.66666 -7.08429,7.41059 -12.5215,15.86075 -12.5215,19.46008 0,0.99308 1.52735,2.80636 3.39411,4.0295 3.89332,2.55101 7.00117,1.92376 13.93922,-2.81327 2.56667,-1.75242 7.81793,-4.11065 11.66946,-5.2405 8.03448,-2.35693 15.7376,-6.52452 24.33054,-13.16347 3.3,-2.54959 13.05499,-9.78953 21.67774,-16.08875 8.62276,-6.29922 16.5332,-13.1074 17.57875,-15.12928 1.04556,-2.02189 2.84058,-4.45592 3.98893,-5.40897 3.45797,-2.86986 2.3922,-6.26957 -3.57875,-11.41593 -7.5113,-6.47398 -11.93151,-8.66461 -21.60232,-10.70597 -4.43539,-0.93625 -14.18842,-4.77616 -21.67339,-8.53314 -21.59292,-10.83828 -38.10136,-14.03071 -55.20897,-10.67641 -3.95009,0.77449 -9.28199,1.64081 -11.84865,1.92515 -2.56667,0.28434 -7.96667,1.19583 -12,2.02552 -4.03334,0.8297 -10.93334,2.0542 -15.33334,2.72112 -22.03547,3.33998 -30.48662,5.34939 -38.41744,9.13442 -4.76577,2.27449 -10.53396,4.50922 -12.81821,4.96607 -2.28424,0.45685 -4.4761,1.35314 -4.87078,1.99176 -0.39469,0.63861 -1.86615,1.16111 -3.26992,1.16111 -1.40377,0 -5.11836,1.14259 -8.25464,2.53907 -7.76781,3.45877 -15.20885,6.18268 -22.36901,8.18855 -6.57672,1.84242 -10.93967,5.67618 -9.80997,8.62012 1.23141,3.209 5.27515,3.53734 16.07478,1.30524 5.72102,-1.18244 14.60186,-2.41276 19.73519,-2.73406 11.87312,-0.74313 15.22232,-1.47001 21.48503,-4.66292 2.79335,-1.42413 5.95938,-2.58933 7.03563,-2.58933 2.53463,0 19.03284,-4.98817 27.05985,-8.18144 3.43595,-1.36688 8.8339,-2.48523 11.99546,-2.48523 3.16155,0 10.25032,-1.42215 15.75282,-3.16033 15.41092,-4.86816 23.5601,-6.4825 27.90564,-5.52806 4.59108,1.00837 10.77543,5.48948 10.74425,7.78517 -0.0244,1.79608 -21.65445,11.806 -30.64534,14.18199 -3.3,0.87208 -9.6,2.69158 -14,4.04332 -4.4,1.35174 -12.8,3.14327 -18.66667,3.98117 -5.86667,0.8379 -13.36667,2.31383 -16.66667,3.27984 -12.79645,3.74591 -17.15205,4.87573 -31.33333,8.12767 -8.06667,1.84979 -16.76667,4.20573 -19.33333,5.23543 -5.01398,2.01152 -22.31966,5.45447 -24.89946,4.95373 -0.86137,-0.16719 -1.94678,0.31193 -2.41202,1.06471 -2.80009,4.53064 -38.55759,-1.80706 -46.80712,-8.29614 -3.36016,-2.64311 -5.31813,-9.75216 -4.06312,-14.75253 1.68126,-6.69864 17.25255,-19.53244 34.18172,-28.17242 5.5,-2.80698 11.59262,-6.22259 13.53916,-7.59024 1.94654,-1.36765 4.41207,-2.48664 5.47897,-2.48664 1.0669,0 5.31294,-1.8 9.43565,-4 4.1227,-2.2 8.78635,-4 10.36365,-4 1.5773,0 8.76839,-2.66856 15.9802,-5.93014 7.2118,-3.26157 17.48262,-7.19415 22.82404,-8.73906 5.34141,-1.54491 12.41166,-3.63951 15.71166,-4.65467 3.3,-1.01516 9.6,-2.51459 14,-3.33207 4.4,-0.81748 11,-2.3223 14.66667,-3.34403 21.96509,-6.12071 53.84657,-9.4707 68.92874,-7.24278 4.62253,0.68283 15.00459,2.1223 23.07126,3.19883 42.03446,5.60964 48.17055,6.68861 56.66666,9.96425 3.3,1.2723 8.7,3.24775 12,4.38987 11.70666,4.05167 25.46634,10.3197 31.02787,14.13433 7.47549,5.12739 21.29791,11.96837 22.97213,11.36934 0.73334,-0.26238 5.8263,3.19521 11.3177,7.68354 20.30995,16.6001 20.73802,17.93159 20.52316,63.83592 -0.14494,30.96565 -0.41268,34.73996 -3,42.29127 -1.56247,4.5602 -2.83582,10.2602 -2.82966,12.66667 0.01,3.86177 -1.68509,12.4984 -5.43796,27.70872 -0.93029,3.77047 -2.05639,4.94862 -5.86379,6.13485 -3.72511,1.16059 -5.02716,1.0889 -6.21485,-0.34218 -1.88774,-2.27459 -0.65909,-12.29271 2.7078,-22.07875 4.04467,-11.75606 5.08663,-21.93718 5.56544,-54.38058 0.10281,-6.96667 -0.42927,-15.36667 -1.1824,-18.66667 -0.75313,-3.3 -2.09607,-9.9 -2.9843,-14.66666 -0.88824,-4.76667 -2.42285,-9.97419 -3.41027,-11.57226 -2.09851,-3.39633 -11.18547,-12.42774 -12.50418,-12.42774 -0.49734,0 -2.8263,-2.96624 -5.17548,-6.59163 -4.9042,-7.56847 -9.04865,-9.66827 -11.76108,-5.9588 -1.55946,2.13268 -1.36064,2.83782 1.56507,5.55069 1.84331,1.70921 3.35147,3.9518 3.35147,4.98353 0,1.03173 -3.10656,3.43621 -6.90346,5.34329 -3.7969,1.90707 -9.74146,6.58864 -13.21012,10.40349 -6.91289,7.60282 -21.06161,19.07906 -34.55309,28.02654 -4.76666,3.16124 -13.31386,8.90993 -18.99378,12.77487 -8.81378,5.99742 -45.36416,25.46801 -47.80877,25.46801 -0.44994,0 -7.31164,3.9 -15.24821,8.66667 -7.93657,4.76667 -14.89553,8.66667 -15.46434,8.66667 -0.56882,0 -4.21062,1.88219 -8.09289,4.18264 -3.88227,2.30045 -7.95867,4.29135 -9.05867,4.42421 -8.22951,0.99399 -18.1264,9.81721 -32.22211,28.72648 -11.49925,15.42614 -12.62986,19.26924 -7.25126,24.64784 2.982,2.982 3.97455,3.15938 15,2.6807 9.75763,-0.42364 27.53507,-0.61641 53.14003,-0.5762 2.2,0.003 11.05241,-0.0483 19.67203,-0.11508 8.61961,-0.0667 16.26355,0.24423 16.98654,0.69106 2.17269,1.3428 40.3195,2.7492 60.67477,2.23697 6.6,-0.16609 13.5,-0.20062 15.33333,-0.0767 8.88581,0.60043 38.44275,-4.9122 41.61714,-7.76196 1.85784,-1.66785 4.34472,-1.8798 13.33333,-1.13632 18.89922,1.5632 32.01394,-1.67255 35.85299,-8.84589 1.16279,-2.17268 5.09111,-19.89875 7.92142,-35.74439 0.72042,-4.03333 2.20386,-10.33333 3.29654,-14 6.58616,-22.10104 8.37936,-34.62277 10.02451,-70 1.13552,-24.41833 1.22309,-36.8286 0.28347,-40.17372 -2.22068,-7.90574 1.92741,-36.34677 6.06266,-41.56814 0.69323,-0.87531 1.97568,-3.8128 2.84989,-6.52776 1.79701,-5.58081 3.10358,-6.22427 13.49667,-6.64677 7.68038,-0.31223 15.16475,2.67353 17.33726,6.9164 2.94697,5.75539 4.57566,19.73381 4.5829,39.33333 0.008,22.09794 -1.52519,31.66681 -11.53759,72 -1.45635,5.86666 -3.20352,15.46666 -3.8826,21.33333 -0.67908,5.86666 -2.43098,14.56666 -3.89312,19.33333 -1.46214,4.76667 -2.66971,12.26667 -2.6835,16.66667 -0.0156,4.9737 -1.44535,12.54897 -3.77957,20.02517 -2.06498,6.61385 -3.52322,12.71903 -3.24054,13.56707 0.28268,0.84803 -0.6533,3.83671 -2.07995,6.64149 -1.42666,2.80478 -4.48524,10.7996 -6.79685,17.76626 -3.57771,10.7824 -10.80196,26.88561 -23.08175,51.45034 -2.07869,4.15824 -2.39245,6.04386 -1.32353,7.95392 1.06854,1.90938 0.63211,4.54649 -1.83884,11.11122 -1.78195,4.7342 -3.75886,9.25494 -4.39313,10.04608 -0.63427,0.79114 -1.59476,3.53844 -2.13443,6.1051 -0.53967,2.56667 -1.8615,6.38849 -2.9374,8.49294 -1.07591,2.10444 -2.76512,6.60444 -3.75381,10 -0.98869,3.39555 -3.5799,11.27373 -5.75825,17.50706 -2.17835,6.23333 -4.994,17.93333 -6.257,26 -1.26301,8.06667 -3.0889,17.66666 -4.05755,21.33333 -0.96865,3.66667 -2.11515,17.90077 -2.54778,31.63133 -0.65273,20.71571 -0.44567,25.62398 1.21658,28.83843 3.86316,7.47051 10.95924,7.50692 20.10183,0.10316 9.46788,-7.66719 24.7986,-18.02255 28.33475,-19.13913 1.65078,-0.52125 3.61856,-2.10088 4.37286,-3.51029 3.8501,-7.19398 16.14127,-8.16924 21.24143,-1.68544 6.4766,8.23365 1.25031,15.96135 -20.51476,30.33356 -8.2962,5.47827 -16.53441,11.64076 -18.30712,13.69443 -6.49038,7.51903 -31.53028,29.69975 -35.03049,31.03052 -5.73676,2.18112 -11.59231,1.58921 -18.76334,-1.89666 -7.81223,-3.79757 -12.31121,-7.77185 -16,-14.13399 -4.48168,-7.72965 -4.43503,-37.8171 0.12083,-77.93259 0.33314,-2.93333 0.61234,-6.23333 0.62046,-7.33333 0.008,-1.1 0.89493,-8.3 1.9707,-16 1.07577,-7.7 2.4832,-17.9 3.12763,-22.66666 0.64443,-4.76667 3.68776,-15.56667 6.76296,-24 3.07519,-8.43333 7.31853,-20.24455 9.42963,-26.24714 3.47351,-9.87639 7.30701,-18.32146 15.75747,-34.7132 1.88003,-3.64677 3.014,-8.54276 3.22228,-13.91236 0.29707,-7.65858 0.0622,-8.43358 -3.10435,-10.24468 -7.2281,-4.13406 -9.49634,-1.94378 -20.09578,19.40506 -8.96387,18.05455 -14.79543,27.45968 -21.31634,34.37899 -3.72317,3.95063 -13.16215,17.09641 -13.16215,18.33108 0,0.58823 -3.53581,4.87024 -7.85736,9.51558 -4.32154,4.64534 -9.46196,10.87079 -11.42314,13.83435 -1.96119,2.96355 -4.72538,5.69151 -6.14265,6.06214 -1.67025,0.43677 -2.57685,1.83349 -2.57685,3.96988 0,2.27757 -2.78593,6.12707 -9.01611,12.45816 -9.25858,9.40855 -42.66439,38.84056 -53.52978,47.16213 -3.35127,2.56667 -8.19942,6.52999 -10.77366,8.80739 -16.47331,14.57369 -21.24928,19.11597 -26.9545,25.63565 -3.5168,4.01884 -7.74383,8.20525 -9.3934,9.30312 -1.64957,1.09788 -4.51658,3.3893 -6.37113,5.09204 -4.15104,3.81128 -28.31917,16.8785 -35.42255,19.15227 -2.86305,0.91645 -7.07636,2.7935 -9.36292,4.17123 -2.28656,1.37773 -5.1162,2.50497 -6.2881,2.50497 -1.17189,0 -4.10107,0.8533 -6.50928,1.89623 -2.40822,1.04293 -12.08447,4.34293 -21.50279,7.33333 -18.56091,5.89326 -29.59356,6.84241 -40.28162,3.46544 z m 36.3432,-35.90696 c 3.81555,-1.01583 13.41555,-5.35871 21.33333,-9.65084 7.91779,-4.29213 17.20028,-8.8018 20.62777,-10.02149 3.42749,-1.2197 8.82749,-3.69872 12,-5.50895 3.17251,-1.81022 7.5682,-3.70354 9.7682,-4.20737 2.2,-0.50383 7.3,-3.44883 11.33334,-6.54444 4.03333,-3.09561 11.36056,-8.21 16.28272,-11.36531 4.92217,-3.1553 9.29569,-6.82801 9.71895,-8.16157 0.42325,-1.33356 2.99603,-4.08597 5.71727,-6.11648 10.6928,-7.97864 46.04728,-40.87295 67.22265,-62.54492 24.63826,-25.21608 31.75885,-32.81965 33.95538,-36.25854 1.31439,-2.0578 6.0406,-8.24146 10.50268,-13.74146 16.49438,-20.33109 20.99819,-30.40378 16.04279,-35.87943 -4.49849,-4.97078 -12.46555,-5.89842 -42.51645,-4.9504 -26.36405,0.83172 -29.01942,0.69624 -39.59266,-2.01997 -10.676,-2.7426 -14.11734,-2.9045 -59.33333,-2.79134 -43.6984,0.10937 -48.92501,0.36237 -58.32184,2.82315 -16.81141,4.40247 -29.0116,14.29227 -41.33759,33.5094 -2.57828,4.01973 -5.93174,8.42632 -7.45214,9.79243 -4.44712,3.99584 -13.5551,20.0296 -13.5551,23.8625 0,1.93565 -2.33141,11.79958 -5.18091,21.91985 -5.92097,21.02882 -6.68411,24.44529 -8.13086,36.40048 -0.57683,4.76666 -2.09164,13.76666 -3.36624,19.99999 -2.99734,14.65822 -2.27823,49.13339 1.15556,55.39925 4.7911,8.74265 9.72104,12.84632 18.42016,15.33287 10.34485,2.95697 15.72301,3.11426 24.70632,0.72259 z M 184.49717,601.1462 c 12.22944,-1.4381 23.02321,-7.11799 28.09718,-14.78528 8.37291,-12.65232 10.7353,-20.77397 6.95517,-23.9112 -1.46917,-1.2193 -3.41015,-0.81946 -8.9162,1.83675 -3.87101,1.86743 -7.74666,3.39534 -8.61254,3.39534 -0.86588,0 -6.76673,2.64948 -13.11299,5.88773 -6.34626,3.23826 -13.86956,6.28154 -16.71843,6.76285 -2.84888,0.48132 -9.19073,3.50952 -14.09301,6.72935 l -8.91322,5.85423 3.61529,3.35054 c 3.95018,3.6609 14.39602,7.35417 18.6291,6.58657 1.46667,-0.26596 7.34801,-1.03405 13.06965,-1.70688 z m 448.26369,274.48657 c -9.80637,-5.90285 -18.86704,-13.71466 -19.9821,-17.22789 -0.36313,-1.14415 -1.97247,-2.67491 -3.57629,-3.40168 -3.74311,-1.6962 -12.36548,-14.2897 -14.56004,-21.26583 -0.93238,-2.9639 -2.24652,-6.1219 -2.9203,-7.01778 -3.00243,-3.99212 -3.85855,-13.72598 -3.70429,-42.11673 0.18677,-34.37383 2.14094,-51.19226 7.4212,-63.87009 1.92061,-4.61137 4.58111,-11.38431 5.91222,-15.05097 1.33111,-3.66667 5.49281,-13.02621 9.24823,-20.79898 3.75542,-7.77278 6.82803,-15.43595 6.82803,-17.02928 0,-4.93529 7.87365,-20.57769 13.06271,-25.95138 6.61469,-6.85007 13.5226,-10.22036 20.94813,-10.22036 5.00192,0 6.7054,0.66844 9.34432,3.66667 5.54032,6.2947 4.50026,10.96844 -4.70003,21.1206 -4.40634,4.86222 -8.32376,10.42418 -8.70536,12.3599 -0.38161,1.93572 -1.64168,6.2195 -2.80016,9.5195 -1.15847,3.3 -2.68233,8.1 -3.38634,10.66666 -0.70401,2.56667 -2.67726,9.76667 -4.385,16 -4.05659,14.8068 -8.93515,34.37528 -9.72298,39 -0.34354,2.01667 -1.00652,3.66667 -1.47329,3.66667 -1.13066,0 -1.42053,5.72475 -1.65404,32.66666 -0.19276,22.24078 -0.12327,22.84203 3.69836,32 7.4491,17.85064 10.60565,22.78612 16.95174,26.50517 10.37702,6.08134 24.71214,4.13231 32.79188,-4.45844 34.71514,-36.91073 42.90905,-47.87964 52.82383,-70.7134 2.0697,-4.76666 5.3511,-11.36666 7.292,-14.66666 1.9408,-3.3 4.8778,-10.5 6.5266,-16 1.6488,-5.5 4.4493,-14.54358 6.2234,-20.09684 1.7742,-5.55327 3.5117,-12.33036 3.8612,-15.06021 0.3495,-2.72985 2.1357,-7.7815 3.9692,-11.22588 1.8336,-3.44438 3.3338,-7.94709 3.3338,-10.006 0,-2.05892 0.8346,-5.3637 1.8547,-7.34395 1.0201,-1.98025 2.8951,-9.00045 4.1666,-15.60045 4.7299,-24.55142 6.7,-28.67366 14.6454,-30.64351 8.2566,-2.04702 12.9207,-1.32958 16.209,2.49328 6.016,6.99399 3.2174,29.23813 -5.4708,43.48356 -6.6471,10.89884 -14.2125,28.83274 -21.3737,50.66667 -12.1022,36.89815 -12.345,37.6196 -15.1951,45.13643 -1.4883,3.92504 -3.433,10.52504 -4.3218,14.66667 -0.8887,4.14162 -3.3876,11.43023 -5.5531,16.19689 -2.1656,4.76667 -5.0334,11.56444 -6.3731,15.10617 -3.7691,9.9646 -18.91185,31.39156 -28.20573,39.91114 -22.37964,20.51513 -26.08812,23.64935 -27.98243,23.64935 -1.12216,0 -3.68608,1.29459 -5.6976,2.87685 -3.17339,2.49618 -5.79948,2.95285 -19.84648,3.45122 l -16.18916,0.57437 z"
       id="path1" />
  </g>
</svg>
